<?xml version="1.0" encoding="utf-8"?>
<!-- Generator: Adobe Illustrator 25.0.0, SVG Export Plug-In . SVG Version: 6.00 Build 0)  -->
<svg version="1.1" id="Layer_1" xmlns="http://www.w3.org/2000/svg" xmlns:xlink="http://www.w3.org/1999/xlink" x="0px" y="0px"
	 viewBox="0 0 339.71 81.31" style="enable-background:new 0 0 339.71 81.31;" xml:space="preserve">
<style type="text/css">
	<!-- .st0{fill:#F1F2F2;}
	.st1{fill:#FBB040;}
	.st2{fill:#E6E7E8;} -->
	.st0{fill:#fff;}
	.st1{fill:#FBB040;}
	.st2{fill:#fff;}
</style>
<path class="st0" d="M336.31,82.59c-0.02,0-0.04,0.01-0.06,0.02C336.27,82.6,336.29,82.59,336.31,82.59z"/>
<path class="st0" d="M340.29,79.62c-0.09,0.16-0.18,0.31-0.28,0.46C340.11,79.93,340.2,79.78,340.29,79.62z"/>
<path class="st0" d="M337.27,82.29c-0.15,0.06-0.3,0.12-0.45,0.17C336.97,82.41,337.12,82.35,337.27,82.29z"/>
<path class="st0" d="M340.52,79.16c-0.07,0.15-0.13,0.29-0.21,0.43C340.39,79.45,340.45,79.3,340.52,79.16z"/>
<path class="st0" d="M340.85,78.18c-0.03,0.11-0.05,0.22-0.09,0.33C340.8,78.4,340.83,78.29,340.85,78.18z"/>
<path class="st0" d="M341.02,77.06c-0.01,0.1-0.01,0.19-0.02,0.29C341.02,77.25,341.02,77.15,341.02,77.06z"/>
<path class="st0" d="M340.96,77.63c-0.02,0.1-0.03,0.21-0.05,0.31C340.94,77.84,340.95,77.74,340.96,77.63z"/>
<path class="st0" d="M340.7,78.69c-0.04,0.12-0.09,0.25-0.14,0.37C340.62,78.94,340.66,78.82,340.7,78.69z"/>
<path class="st0" d="M337.37,82.26c1.07-0.46,1.99-1.21,2.64-2.17C339.36,81.04,338.44,81.8,337.37,82.26z"/>
<path class="st1" d="M340.92,77.94c-0.02,0.08-0.04,0.16-0.06,0.24C340.88,78.1,340.9,78.02,340.92,77.94z"/>
<path class="st1" d="M340.31,79.59c-0.01,0.01-0.01,0.02-0.02,0.03C340.3,79.61,340.3,79.6,340.31,79.59z"/>
<path class="st1" d="M336.82,82.46c-0.17,0.05-0.34,0.1-0.51,0.13C336.48,82.55,336.65,82.51,336.82,82.46z"/>
<path class="st1" d="M337.37,82.26c-0.03,0.01-0.06,0.02-0.1,0.04C337.3,82.28,337.34,82.27,337.37,82.26z"/>
<path class="st1" d="M340.01,80.08C340.01,80.08,340.01,80.09,340.01,80.08C340.01,80.09,340.01,80.08,340.01,80.08z"/>
<path class="st1" d="M340.77,78.51c-0.02,0.06-0.04,0.12-0.07,0.18C340.72,78.63,340.75,78.57,340.77,78.51z"/>
<path class="st1" d="M335.04,82.73c0.41,0,0.82-0.04,1.2-0.12C335.86,82.69,335.45,82.73,335.04,82.73L335.04,82.73z"/>
<path class="st1" d="M341.01,77.35c-0.01,0.1-0.03,0.19-0.04,0.29C340.98,77.54,341,77.44,341.01,77.35z"/>
<path class="st1" d="M340.56,79.06c-0.01,0.03-0.03,0.06-0.04,0.09C340.53,79.13,340.55,79.1,340.56,79.06z"/>
<path class="st1" d="M336.82,82.4c-0.13,0.04-0.25,0.07-0.38,0.1C336.56,82.47,336.69,82.44,336.82,82.4z"/>
<path class="st1" d="M338.85,81.3c-0.01,0.01-0.03,0.02-0.04,0.03C338.82,81.32,338.83,81.31,338.85,81.3z"/>
<path class="st1" d="M337.37,82.2c-0.04,0.02-0.09,0.03-0.14,0.05C337.28,82.23,337.32,82.22,337.37,82.2z"/>
<path class="st1" d="M337.89,81.95c-0.01,0-0.01,0.01-0.02,0.01C337.88,81.95,337.89,81.95,337.89,81.95z"/>
<path class="st1" d="M338.39,81.64c-0.01,0.01-0.03,0.02-0.04,0.03C338.36,81.66,338.37,81.65,338.39,81.64z"/>
<path class="st1" d="M335.65,82.64c-0.2,0.02-0.4,0.03-0.61,0.03C335.25,82.67,335.45,82.66,335.65,82.64z"/>
<path class="st1" d="M336.25,82.55c-0.17,0.03-0.34,0.06-0.51,0.08C335.91,82.61,336.08,82.58,336.25,82.55z"/>
<path class="st1" d="M339.27,80.91c-0.01,0.01-0.02,0.01-0.02,0.02C339.26,80.93,339.27,80.92,339.27,80.91z"/>
<path class="st1" d="M336.44,82.5c-0.06,0.02-0.13,0.04-0.19,0.05C336.31,82.53,336.37,82.51,336.44,82.5z"/>
<path class="st1" d="M337.23,82.25c-0.14,0.05-0.27,0.11-0.41,0.15C336.96,82.36,337.1,82.3,337.23,82.25z"/>
<path class="st1" d="M339.25,80.93c-0.13,0.13-0.26,0.25-0.4,0.37C338.99,81.18,339.12,81.06,339.25,80.93z"/>
<path class="st1" d="M337.87,81.96c-0.16,0.09-0.33,0.17-0.5,0.24C337.54,82.13,337.71,82.04,337.87,81.96z"/>
<path class="st1" d="M335.74,82.63c-0.03,0-0.06,0.01-0.08,0.01C335.68,82.64,335.71,82.63,335.74,82.63z"/>
<path class="st1" d="M338.8,81.33c-0.14,0.11-0.27,0.22-0.42,0.31C338.53,81.55,338.67,81.44,338.8,81.33z"/>
<path class="st1" d="M338.34,81.67c-0.15,0.1-0.3,0.19-0.45,0.27C338.05,81.86,338.2,81.77,338.34,81.67z"/>
<path class="st2" d="M333.9-0.05H0v81.36c21.31-0.01,165.81-0.05,165.82-0.06c20.61-3.51,15.3-26.97,50.17-26.97
	c43.75,0,80.16,0,123.91,0V5.95C339.9,2.65,337.2-0.05,333.9-0.05z"/>
</svg>
