<?xml version="1.0" encoding="utf-8"?>
<!-- Generator: Adobe Illustrator 25.0.0, SVG Export Plug-In . SVG Version: 6.00 Build 0)  -->
<svg version="1.1" id="Layer_1" xmlns="http://www.w3.org/2000/svg" xmlns:xlink="http://www.w3.org/1999/xlink" x="0px" y="0px"
	 viewBox="0 0 600 188.04" style="enable-background:new 0 0 600 188.04;" xml:space="preserve">
<style type="text/css">
	.st0{fill:#45546A;}
	.st1{fill:#65A443;}
	.st2{fill:#808085;}
	.st3{fill:#F7CB3D;}
	.st4{fill:#EF4237;}
	.st5{fill:#62C5BA;}
	.st6{fill:none;}
	.st7{fill:#2A3847;}
</style>
<g>
	<path class="st0" d="M92.66,155.09c-33.86,0-61.33-27.46-61.33-61.33S58.8,32.44,92.66,32.44c13.09,0,25.23,4.11,35.2,11.11
		c0.63,0.45,2.13,0.89,3.38-0.39c1.28-1.28,11.69-13.7,12.81-14.81c1.11-1.11,0.45-2.55-0.08-2.96
		c-14.29-10.74-32.04-17.1-51.29-17.1C45.48,8.28,7.2,46.54,7.2,93.76c0,47.2,38.26,85.48,85.48,85.48
		c20.51,0,39.34-7.21,54.05-19.27c0.57-0.47,0.99-2.23,0.26-3.06c-0.73-0.85-12.08-14.06-13.07-15.06s-3.51,0.24-3.51,0.24
		S106.89,155.09,92.66,155.09z"/>
	<path class="st0" d="M287.52,65.37c-1.13,0-23.29,0-24.28,0c-0.97,0-1.01,0.71-1.03,1.05c-0.57,22.82-19.23,41.14-42.17,41.14
		s-41.63-18.32-42.17-41.14c0-0.34-0.47-1.05-1.36-1.05c-0.89,0-23.45,0-24.28,0c-0.83,0-1.05,0.71-1.03,1.05
		c0.49,31.94,22.72,58.61,52.55,65.87c3.06,0.57,2.76,4.07,2.76,7.58v24.95c0,7.3,5.96,13.25,13.25,13.25h1.58
		c7.3,0,13.25-5.96,13.25-13.25V139.1c0-4.07,0.51-6.38,2.63-7.03c29.39-7.56,51.19-34.01,51.66-65.64
		C288.9,66.08,288.66,65.37,287.52,65.37z"/>
	<path class="st0" d="M543.97,31.73c0-7.3-5.72-13.25-12.71-13.25c-6.99,0-12.71,5.96-12.71,13.25c0,0,0,39.13,0,40.47
		c0,1.36-0.99,4.07-3.3,3.47c-8.45-4.72-18.26-7.42-28.72-7.42c-31.72,0-57.43,24.87-57.43,55.53s25.72,55.53,57.43,55.53
		s57.43-24.87,57.43-55.53c0-1.07-0.04-2.15-0.1-3.22c0.06-0.61,0.1-1.26,0.1-1.99L543.97,31.73L543.97,31.73z M486.53,155.19
		c-17.96,0-32.49-14.06-32.49-31.41s14.55-31.41,32.49-31.41c17.96,0,32.49,14.06,32.49,31.41
		C519.04,141.12,504.49,155.19,486.53,155.19z"/>
	<circle class="st1" cx="572.87" cy="34.1" r="15.63"/>
	<path class="st0" d="M419.76,178.19h-24.72c0,0-0.08-10.58-0.08-10.9c-0.51-23.16-19.44-41.79-42.72-41.79
		s-42.21,18.62-42.74,41.79c0,0.32-0.12,10.9-0.12,10.9l-24.81,0.12c0,0,0.06-10.7,0.06-11.02c0.24-17.85,7.42-34.03,18.95-45.96
		c0.71-0.53,1.16-4.56-0.79-7.84l-2.65-3.65c-3.71-6.28-2.09-14.94,4.2-18.64l1.36-0.79c6.28-3.71,14.45-1.62,18.16,4.66l2.76,4.88
		c1.7,2.88,4.22,2.94,5.98,3.61c6.22-1.88,12.83-2.92,19.66-2.92c37.01,0,67.08,29.75,67.59,66.66
		C419.84,167.61,419.76,178.19,419.76,178.19z"/>
	<path class="st0" d="M586.2,165.56c0,7.56-6,13.74-13.34,13.74c-7.34,0-13.34-6.18-13.34-13.74V69.62c0-7.56,6-13.74,13.34-13.74
		c7.34,0,13.34,6.18,13.34,13.74V165.56z"/>
	<circle class="st2" cx="486.53" cy="125.25" r="15.63"/>
	<circle class="st3" cx="352.78" cy="161.65" r="15.63"/>
	<circle class="st4" cx="220.03" cy="69.16" r="15.63"/>
	<circle class="st5" cx="92.9" cy="95.2" r="15.63"/>
	<path class="st6" d="M486.53,92.36c-17.49,0-31.74,13.36-32.47,30.08c21.85,2.94,43.11,6.38,63.62,10.25
		c0.87-2.84,1.34-5.82,1.34-8.92C519.04,106.43,504.49,92.36,486.53,92.36z"/>
	<g>
		<path class="st7" d="M92.66,179.24c20.51,0,39.34-7.21,54.05-19.27c0.57-0.47,0.99-2.23,0.26-3.06
			c-0.73-0.85-12.08-14.06-13.07-15.06c-0.99-0.99-3.51,0.24-3.51,0.24s-23.51,12.99-37.74,12.99c-14.81,0-28.39-5.25-38.99-13.98
			c-8.86,2.98-17.17,6.14-24.85,9.5C44.47,168.16,67.27,179.24,92.66,179.24z"/>
		<path class="st7" d="M206.5,139.87v24.95c0,7.3,5.96,13.25,13.25,13.25h1.58c7.3,0,13.25-5.96,13.25-13.25V139.1
			c0-4.07,0.51-6.38,2.63-7.03c13.52-3.47,25.41-10.94,34.39-21.08c-34.47,0.39-67.22,2.29-97.58,5.61
			c8.33,7.48,18.46,12.95,29.71,15.69C206.8,132.83,206.5,136.36,206.5,139.87z"/>
		<path class="st7" d="M486.53,179.3c26.77,0,49.27-17.71,55.63-41.69c-8.03-1.7-16.19-3.34-24.48-4.92
			c-3.97,12.99-16.42,22.5-31.15,22.5c-17.96,0-32.49-14.06-32.49-31.41c0-0.45,0.02-0.89,0.04-1.34
			c-8.19-1.09-16.46-2.13-24.79-3.08c-0.12,1.46-0.18,2.94-0.18,4.42C429.1,154.44,454.82,179.3,486.53,179.3z"/>
		<path class="st7" d="M303.57,121.32c-11.53,11.94-18.69,28.11-18.95,45.96c0,0.32-0.06,11.02-0.06,11.02l24.81-0.12
			c0,0,0.12-10.58,0.12-10.9c0.51-23.16,19.44-41.79,42.74-41.79c23.29,0,42.21,18.62,42.72,41.79c0,0.32,0.08,10.9,0.08,10.9h24.72
			c0,0,0.06-10.58,0.06-10.9c-0.28-20.73-9.91-39.19-24.83-51.42c-0.04,0-0.08,0-0.12-0.02c-32.16-2.84-63.6-4.42-93.87-4.84
			l1.78,2.43C304.73,116.76,304.28,120.8,303.57,121.32z"/>
		<path class="st7" d="M572.87,179.3c7.34,0,13.34-6.18,13.34-13.74v-17.57c-8.69-2.27-17.59-4.44-26.67-6.53v24.12
			C559.53,173.12,565.53,179.3,572.87,179.3z"/>
	</g>
</g>
</svg>
