<?xml version="1.0" encoding="utf-8"?>
<!-- Generator: Adobe Illustrator 25.0.0, SVG Export Plug-In . SVG Version: 6.00 Build 0)  -->
<svg version="1.1" id="Layer_1" xmlns="http://www.w3.org/2000/svg" xmlns:xlink="http://www.w3.org/1999/xlink" x="0px" y="0px"
	 viewBox="0 0 87.1 87.1" style="enable-background:new 0 0 87.1 87.1;" xml:space="preserve">
<style type="text/css">
	.st0{fill:#78909C;}
	.st1{fill:#546E7A;}
	.st2{fill:#90A4AE;}
	.st3{fill:#FFFFFF;}
	.st4{fill:#CFD8DC;}
	.st5{fill:#B0BEC5;}
	.st6{fill:#FFFFFF;stroke:#78909C;stroke-miterlimit:10;}
	.st7{fill:#E53935;}
</style>
<g>
	<g>
		<path class="st0" d="M25.3,13.4h29.1l0-1.4l0.2-6h-9l-1.9-4.5h-7L34.6,6h-8.4L25.3,13.4z M41.4,4.3L41.4,4.3
			c0,0.4-0.1,0.6-0.3,0.8c-0.2,0.2-0.5,0.3-0.8,0.3c-0.3,0-0.6-0.1-0.8-0.3c-0.2-0.2-0.3-0.5-0.3-0.8l0-0.1c0-0.3,0.1-0.6,0.3-0.8
			c0.2-0.2,0.5-0.3,0.8-0.3c0.3,0,0.6,0.1,0.8,0.3C41.3,3.8,41.5,4.1,41.4,4.3z"/>
		<polygon class="st1" points="66.1,9.2 76.2,84.6 75.2,85.6 23.6,85.6 17.9,37.8 14.5,9.2 15.5,8.3 		"/>
		<path class="st0" d="M73.7,63.9l2.5,20.7H24.5l-5.7-47.8C37.3,44.1,55,52.8,73,63.5C73.3,63.6,73.5,63.8,73.7,63.9z"/>
		<path class="st2" d="M67.1,8.3l6.6,55.6c-0.2-0.1-0.4-0.3-0.7-0.4C55,52.8,37.3,44.1,18.9,36.8L15.5,8.3H67.1z"/>
		<polygon class="st3" points="27.3,81.7 72.7,81.7 64.3,11.2 18.9,11.2 		"/>
		<path class="st4" d="M26.4,6l0,0.4C36.4,7.5,46.4,9,56.3,12l-0.7-6h-9L44,1.5h-7L35.5,6H26.4z M39.9,4.3c0-0.3,0.1-0.6,0.2-0.8
			c0.2-0.2,0.5-0.3,0.7-0.3c0.3,0,0.6,0.1,0.8,0.3c0.2,0.2,0.4,0.5,0.4,0.8l0,0.1c0,0.3-0.1,0.6-0.2,0.8c-0.2,0.2-0.5,0.3-0.7,0.3
			c-0.3,0-0.6-0.1-0.8-0.3C40.1,5,40,4.7,39.9,4.3L39.9,4.3z"/>
		<path class="st5" d="M56.3,12l0.2,1.4H27.3l-0.8-7C36.4,7.5,46.4,9,56.3,12z"/>
	</g>
	<g>
		<path class="st0" d="M33.9,19.1h28.2c0.6,0,0.6,0.9,0,0.9H33.9C33.3,20,33.3,19.1,33.9,19.1z"/>
		<path class="st6" d="M22.5,22L22,17.6c-0.1-0.4,0.3-0.8,0.7-0.8h6.1c0.4,0,0.7,0.3,0.7,0.6l0.5,4.4c0.1,0.4-0.3,0.8-0.7,0.8h-6.1
			C22.9,22.6,22.6,22.4,22.5,22z"/>
		<path class="st0" d="M35.4,32.6h28.2c0.6,0,0.6,0.9,0,0.9H35.4C34.8,33.5,34.8,32.6,35.4,32.6z"/>
		<path class="st6" d="M24.1,35.5l-0.5-4.4c-0.1-0.4,0.3-0.8,0.7-0.8h6.1c0.4,0,0.7,0.3,0.7,0.6l0.5,4.4c0.1,0.4-0.3,0.8-0.7,0.8
			h-6.1C24.4,36.1,24.1,35.9,24.1,35.5z"/>
		<path class="st0" d="M37,46.1h28.2c0.6,0,0.6,0.9,0,0.9H37C36.4,47,36.4,46.1,37,46.1z"/>
		<path class="st6" d="M25.6,49l-0.5-4.4c-0.1-0.4,0.3-0.8,0.7-0.8H32c0.4,0,0.7,0.3,0.7,0.6l0.5,4.4c0.1,0.4-0.3,0.8-0.7,0.8h-6.1
			C26,49.6,25.7,49.3,25.6,49z"/>
		<path class="st0" d="M38.5,59.6h28.2c0.6,0,0.6,0.9,0,0.9H38.5C37.9,60.5,37.9,59.6,38.5,59.6z"/>
		<path class="st6" d="M27.2,62.5L26.6,58c-0.1-0.4,0.3-0.8,0.7-0.8h6.1c0.4,0,0.7,0.3,0.7,0.6l0.5,4.4c0.1,0.4-0.3,0.8-0.7,0.8
			h-6.1C27.5,63.1,27.2,62.8,27.2,62.5z"/>
		<path class="st0" d="M40.1,73h28.2c0.6,0,0.6,0.9,0,0.9H40.1C39.5,74,39.5,73,40.1,73z"/>
		<path class="st6" d="M28.7,75.9l-0.5-4.4c-0.1-0.4,0.3-0.8,0.7-0.8H35c0.4,0,0.7,0.3,0.7,0.6l0.5,4.4c0.1,0.4-0.3,0.8-0.7,0.8
			h-6.1C29.1,76.6,28.8,76.3,28.7,75.9z"/>
	</g>
	<path class="st7" d="M23,15.1c0.8,1.1,1.6,2.2,2.5,3.2c0.4,0.5,0.7,1,1.1,1.4c0.3,0.3,0.3,0.5,0.8,0.2c0.3-0.1,0.6-0.6,0.8-0.8
		c0.4-0.4,1.1,0.2,0.7,0.7c-0.9,0.9-1.7,2.1-2.7,0.9c-1.4-1.7-2.6-3.5-4-5.2C21.8,15.1,22.6,14.7,23,15.1z"/>
	<path class="st7" d="M25.6,41.6c0.8,1.1,1.6,2.2,2.5,3.2c0.4,0.5,0.7,1,1.1,1.4c0.3,0.3,0.3,0.5,0.8,0.2c0.3-0.1,0.6-0.6,0.8-0.8
		c0.4-0.4,1.1,0.2,0.7,0.7c-0.9,0.9-1.7,2.1-2.7,0.9c-1.4-1.7-2.6-3.5-4-5.2C24.5,41.6,25.3,41.2,25.6,41.6z"/>
</g>
</svg>
