<?xml version="1.0" encoding="utf-8"?>
<!-- Generator: Adobe Illustrator 25.0.0, SVG Export Plug-In . SVG Version: 6.00 Build 0)  -->
<svg version="1.1" id="Layer_1" xmlns="http://www.w3.org/2000/svg" xmlns:xlink="http://www.w3.org/1999/xlink" x="0px" y="0px"
	 viewBox="0 0 299.24 180.3" style="enable-background:new 0 0 299.24 180.3;" xml:space="preserve">
<style type="text/css">
	.st0{fill:#E7F3FE;}
	.st1{fill:none;}
	.st2{fill:#2E5B9A;}
	.st3{fill:#9CD499;}
	.st4{fill:#74B570;}
	.st5{fill:#F39892;}
	.st6{fill:#D54A41;}
	.st7{fill:#75A1DE;}
	.st8{fill:#75B3F1;}
	.st9{fill:#FFFFFF;}
	.st10{fill:#A0A9FF;}
	.st11{opacity:0.8;fill:#E8EBFF;}
	.st12{opacity:0.59;}
	.st13{fill:#E8EBFF;}
	.st14{fill:#464FF8;}
	.st15{opacity:0.44;fill:#A0A9FF;}
	.st16{fill:#8730F8;}
	.st17{fill:none;stroke:#FFFFFF;stroke-width:2;stroke-linecap:round;stroke-linejoin:round;stroke-miterlimit:10;}
	.st18{opacity:0.22;}
	.st19{fill:#45DBFF;}
	.st20{fill:none;stroke:#75C5F3;stroke-width:3;stroke-miterlimit:10;}
</style>
<g>
	<path class="st0" d="M111.67,172.02C39.18,167.8-18.95,91.1,19.62,46.59C49.54,12.07,89.43,62.32,126.63,37
		C183.87-1.94,276.6-9.02,288.88,40.07c12.27,49.09-28.38,125.81-58.68,130.41C199.89,175.08,111.67,172.02,111.67,172.02z"/>
	<path class="st1" d="M111.67,172.02C39.18,167.8-18.95,91.1,19.62,46.59C49.54,12.07,89.43,62.32,126.63,37
		C183.87-1.94,276.6-9.02,288.88,40.07c12.27,49.09-28.38,125.81-58.68,130.41C199.89,175.08,111.67,172.02,111.67,172.02z"/>
	<path class="st2" d="M254.09,174.8H53.51c-1.45,0-2.62-1.02-2.62-2.28c0-1.26,1.17-2.28,2.62-2.28h200.59
		c1.45,0,2.62,1.02,2.62,2.28C256.71,173.77,255.54,174.8,254.09,174.8z"/>
	<path class="st3" d="M244.46,158.51c0-0.8,9.62-27.38,3.12-44.5c-4.55-11.98-5.27-26.36-5.27-26.36s-8.87,12.7-2.88,32.12
		c3.69,11.95,5.19,15.26,5.51,18.77c0.32,3.52-1.44,21.09-1.44,21.09L244.46,158.51z"/>
	<g>
		<path class="st4" d="M243.5,159.93c-0.04,0-0.08-0.01-0.12-0.02c-0.12-0.05-0.19-0.17-0.18-0.3c0.02-0.18,1.75-17.59,1.44-21.04
			c-0.21-2.29-0.92-4.46-2.47-9.21c-0.79-2.43-1.78-5.46-3.03-9.5c-3.12-10.1-2.16-18.35-0.81-23.5c1.46-5.59,3.64-8.74,3.73-8.87
			c0.07-0.1,0.2-0.15,0.32-0.11c0.12,0.04,0.21,0.14,0.21,0.27c0.01,0.14,0.77,14.47,5.25,26.27c2.43,6.4,2.92,14.84,1.45,25.08
			c-1.17,8.18-3.26,15.17-4.16,18.16c-0.2,0.68-0.38,1.27-0.39,1.38c0,0.07-0.02,0.13-0.07,0.18l-0.96,1.12
			C243.67,159.89,243.58,159.93,243.5,159.93z M242.07,88.59c-0.73,1.26-2.14,4.01-3.17,7.94c-1.32,5.07-2.26,13.2,0.81,23.15
			c1.25,4.04,2.23,7.06,3.03,9.49c1.57,4.79,2.28,6.98,2.5,9.34c0.28,3.08-0.98,16.5-1.35,20.21l0.29-0.34
			c0.03-0.18,0.14-0.53,0.4-1.41c5.56-18.57,6.47-32.99,2.72-42.86C243.44,103.97,242.32,91.97,242.07,88.59z"/>
	</g>
	<path class="st3" d="M246.54,161.23c-1.44-29.56,5.59-45.7,19.97-58.48c14.38-12.78,15.02-16.14,15.02-16.14
		s-2.24,24.93-10.55,33.55c-8.31,8.63-20.45,15.02-22.21,19.49c-1.76,4.47-1.12,19.49-1.12,19.49l-1.12,2.72V161.23z"/>
	<path class="st3" d="M244.78,163.79c-0.16-0.48,3.04-27.64,14.7-29.24c11.66-1.6,14.38,1.12,22.37-0.16
		c5.7-0.91,10.07-2.72,10.07-2.72s-3.03,7.7-13.42,10.87c-7.35,2.24-16.94-1.44-22.53-0.48c-5.59,0.96-8.47,12.94-8.47,12.94
		l-0.96,6.23L244.78,163.79z"/>
	<g>
		<path class="st4" d="M246.38,159.77c-0.15,0-0.28-0.12-0.29-0.27c-0.02-0.19-1.67-19.27,6.43-33.88
			c4.18-7.55,8.75-11.92,13.17-16.15c4.12-3.94,8-7.66,10.95-13.56c0.07-0.15,0.25-0.2,0.4-0.13c0.15,0.07,0.21,0.25,0.13,0.4
			c-2.99,5.99-6.92,9.74-11.07,13.72c-4.39,4.2-8.92,8.54-13.06,16.01c-8.01,14.45-6.37,33.35-6.36,33.54
			c0.02,0.16-0.1,0.31-0.27,0.32C246.39,159.77,246.38,159.77,246.38,159.77z"/>
	</g>
	<g>
		<path class="st4" d="M245.58,155.93c-0.03,0-0.06,0-0.08-0.01c-0.16-0.05-0.25-0.21-0.2-0.37c3.06-10.54,6.57-16.69,11.05-19.36
			c4-2.38,8.14-1.65,12.52-0.88c1.07,0.19,2.18,0.39,3.28,0.53c9.52,1.25,14.16-1.06,14.21-1.09c0.15-0.07,0.32-0.02,0.4,0.13
			c0.07,0.15,0.02,0.32-0.13,0.4c-0.19,0.1-4.83,2.42-14.55,1.15c-1.11-0.15-2.23-0.34-3.3-0.53c-4.27-0.75-8.3-1.47-12.12,0.8
			c-4.34,2.58-7.77,8.62-10.78,19.01C245.82,155.85,245.71,155.93,245.58,155.93z"/>
	</g>
	<g>
		<path class="st4" d="M260.84,114.95c-0.09,0-0.18-0.04-0.23-0.12c-0.1-0.13-0.08-0.31,0.05-0.41c0.06-0.04,5.74-4.37,13.63-5.89
			c0.16-0.03,0.32,0.07,0.35,0.23c0.03,0.16-0.07,0.32-0.23,0.35c-7.75,1.49-13.32,5.73-13.38,5.78
			C260.96,114.93,260.9,114.95,260.84,114.95z"/>
	</g>
	<g>
		<path class="st4" d="M251.81,127.81c-0.05,0-0.1-0.01-0.15-0.04c-0.14-0.08-0.19-0.26-0.1-0.41c4.16-7.02,9.03-8.78,19.66-12.11
			c0.15-0.05,0.32,0.04,0.37,0.19c0.05,0.16-0.04,0.32-0.19,0.37c-10.48,3.28-15.28,5.02-19.33,11.85
			C252.01,127.76,251.91,127.81,251.81,127.81z"/>
	</g>
	<path class="st5" d="M249.23,171.06h-7.14c-2.52,0-4.68-1.79-5.16-4.26l-2.3-12.03h22.05l-2.3,12.03
		C253.91,169.27,251.74,171.06,249.23,171.06z"/>
	<g>
		<path class="st6" d="M256.12,157.83h-20.77c-0.33,0-0.59-0.26-0.59-0.59c0-0.33,0.26-0.59,0.59-0.59h20.77
			c0.33,0,0.59,0.26,0.59,0.59C256.71,157.56,256.45,157.83,256.12,157.83z"/>
	</g>
	<g>
		<path class="st7" d="M205.45,59.9l0.77-4.85l-2.71-0.43c-0.09-0.85-0.29-1.67-0.59-2.44l2.23-1.61l-2.88-3.98l-2.23,1.61
			c-0.64-0.53-1.36-0.97-2.14-1.32l0.43-2.71l-4.85-0.77l-0.43,2.71c-0.85,0.09-1.67,0.29-2.44,0.59L189,44.46l-3.98,2.88l1.61,2.23
			c-0.53,0.64-0.97,1.36-1.32,2.14l-2.71-0.43l-0.77,4.85l2.71,0.43c0.09,0.85,0.29,1.67,0.59,2.44l-2.23,1.61l2.88,3.98l2.23-1.61
			c0.64,0.53,1.36,0.97,2.14,1.32l-0.43,2.71l4.85,0.77l0.43-2.71c0.85-0.09,1.67-0.29,2.44-0.59l1.61,2.23l3.98-2.88l-1.61-2.23
			c0.53-0.64,0.97-1.36,1.32-2.14L205.45,59.9z M193.36,59.79c-2.32-0.37-3.91-2.56-3.54-4.88c0.37-2.32,2.56-3.91,4.88-3.54
			c2.32,0.37,3.91,2.56,3.54,4.88C197.86,58.58,195.68,60.16,193.36,59.79z"/>
		<path class="st8" d="M185.61,58.25L185.61,58.25c-0.43,0-0.77-0.34-0.77-0.77V43.99c0-0.43,0.34-0.77,0.77-0.77l0,0
			c0.43,0,0.77,0.34,0.77,0.77v13.49C186.38,57.91,186.03,58.25,185.61,58.25z"/>
		<path class="st8" d="M185.61,76.33L185.61,76.33c-0.43,0-0.77-0.34-0.77-0.77V62.07c0-0.43,0.34-0.77,0.77-0.77l0,0
			c0.43,0,0.77,0.34,0.77,0.77v13.49C186.38,75.99,186.03,76.33,185.61,76.33z"/>
		<path class="st7" d="M181.07,27.38h-67.02c-2.33,0-4.22,2.07-4.22,4.62v124.63c0,2.55,1.89,4.62,4.22,4.62h67.02
			c2.33,0,4.22-2.07,4.22-4.62V32C185.29,29.45,183.4,27.38,181.07,27.38z"/>
		<path class="st9" d="M175.94,157.23h-56.76c-2.95,0-5.34-2.39-5.34-5.34V36.75c0-2.95,2.39-5.34,5.34-5.34h56.76
			c2.95,0,5.34,2.39,5.34,5.34v115.14C181.29,154.83,178.89,157.23,175.94,157.23z"/>
		<path class="st10" d="M160.34,34.81h-25.55c-1.83,0-3.47-1.06-4.1-2.67l-0.83-2.11h35.43l-0.83,2.11
			C163.81,33.74,162.17,34.81,160.34,34.81z"/>
		<g>
			<path class="st11" d="M162.5,63.78H93.56c-3.53,0-6.39-2.86-6.39-6.39v-4.97c0-3.53,2.86-6.39,6.39-6.39h68.94
				c3.53,0,6.39,2.86,6.39,6.39v4.97C168.89,60.92,166.03,63.78,162.5,63.78z"/>
			
				<ellipse transform="matrix(0.9239 -0.3827 0.3827 0.9239 -8.3923 65.165)" class="st10" cx="159.61" cy="53.68" rx="4.04" ry="4.04"/>
			<g class="st12">
				<g>
					<rect x="92.38" y="50.33" class="st10" width="7.56" height="0.61"/>
					<rect x="92.38" y="52" class="st10" width="7.56" height="0.61"/>
					<rect x="92.38" y="53.68" class="st10" width="7.56" height="0.61"/>
				</g>
				<rect x="105.31" y="50.63" class="st10" width="37.19" height="1.98"/>
				<rect x="105.31" y="57.73" class="st10" width="37.19" height="1.98"/>
				<rect x="105.31" y="54.29" class="st10" width="17.89" height="0.99"/>
			</g>
			<g>
				<path class="st13" d="M159.61,54.49c-0.71,0-1.32,0.43-1.6,1.04h3.19C160.93,54.92,160.32,54.49,159.61,54.49z"/>
				<path class="st13" d="M159.61,54.08c0.67,0,1.21-0.54,1.21-1.21c0-0.67-0.54-1.21-1.21-1.21c-0.67,0-1.21,0.54-1.21,1.21
					C158.39,53.53,158.94,54.08,159.61,54.08z"/>
			</g>
		</g>
		<g>
			<path class="st11" d="M160.72,153.23H89.71c-2.96,0-5.35-2.4-5.35-5.35v-26.69c0-2.96,2.4-5.35,5.35-5.35h71.01
				c2.96,0,5.35,2.4,5.35,5.35v26.69C166.08,150.83,163.68,153.23,160.72,153.23z"/>
			<g>
				<g class="st12">
					<rect x="111.15" y="124.14" class="st10" width="38.07" height="1.74"/>
					<rect x="111.15" y="129.05" class="st10" width="48.59" height="1.74"/>
					<rect x="111.15" y="133.08" class="st10" width="48.59" height="1.74"/>
					<rect x="111.15" y="137.12" class="st10" width="48.59" height="1.74"/>
					<rect x="111.15" y="141.15" class="st10" width="48.59" height="1.74"/>
					<rect x="111.15" y="145.19" class="st10" width="25.99" height="1.74"/>
				</g>
				<path class="st14" d="M106.4,129.21l-0.92-3.2l-1.79,0.51c-0.3-0.49-0.65-0.94-1.06-1.33l0.9-1.63l-2.91-1.61l-0.9,1.63
					c-0.55-0.14-1.11-0.21-1.69-0.19l-0.51-1.79l-3.2,0.92l0.51,1.79c-0.49,0.3-0.94,0.65-1.33,1.06l-1.63-0.9l-1.61,2.91l1.63,0.9
					c-0.14,0.55-0.21,1.11-0.19,1.69l-1.79,0.51l0.92,3.2l1.79-0.51c0.3,0.49,0.65,0.94,1.06,1.33l-0.9,1.63l2.91,1.61l0.9-1.63
					c0.55,0.14,1.11,0.21,1.69,0.19l0.51,1.79l3.2-0.92l-0.51-1.79c0.49-0.3,0.94-0.65,1.33-1.06l1.63,0.9l1.61-2.91l-1.63-0.9
					c0.14-0.55,0.21-1.11,0.19-1.69L106.4,129.21z M98.95,132.62c-1.53,0.44-3.13-0.45-3.57-1.98c-0.44-1.53,0.45-3.13,1.98-3.57
					c1.53-0.44,3.13,0.45,3.57,1.98C101.36,130.58,100.48,132.18,98.95,132.62z"/>
			</g>
		</g>
		<g>
			<path class="st11" d="M200.78,112.23h-71.01c-2.96,0-5.35-2.4-5.35-5.35V75.05c0-2.96,2.4-5.35,5.35-5.35h71.01
				c2.96,0,5.35,2.4,5.35,5.35v31.82C206.14,109.83,203.74,112.23,200.78,112.23z"/>
			<g>
				<g>
					<path class="st15" d="M144.61,101.41h-9.43c-2.97,0-5.38-2.41-5.38-5.38V86.6c0-2.97,2.41-5.38,5.38-5.38h9.43
						c2.97,0,5.38,2.41,5.38,5.38v9.43C149.99,99,147.58,101.41,144.61,101.41z"/>
					<path class="st16" d="M143.84,100.4h-9.43c-2.97,0-5.38-2.41-5.38-5.38v-9.43c0-2.97,2.41-5.38,5.38-5.38h9.43
						c2.97,0,5.38,2.41,5.38,5.38v9.43C149.22,97.99,146.81,100.4,143.84,100.4z"/>
					<g>
						<g>
							<polyline class="st17" points="135.09,87.49 135.09,85.85 143.74,85.85 143.74,87.49 							"/>
							<line class="st17" x1="139.41" y1="85.85" x2="139.41" y2="94.63"/>
						</g>
						<line class="st17" x1="137.5" y1="94.63" x2="141.32" y2="94.63"/>
					</g>
				</g>
				<g class="st18">
					<path class="st9" d="M146.06,80.21H132.2c-1.74,0-3.16,1.41-3.16,3.16v13.87c0,0.62,0.19,1.2,0.5,1.69l18.48-18.02
						C147.48,80.48,146.8,80.21,146.06,80.21z"/>
				</g>
			</g>
			<g>
				<path class="st15" d="M171.05,101.41h-9.43c-2.97,0-5.38-2.41-5.38-5.38V86.6c0-2.97,2.41-5.38,5.38-5.38h9.43
					c2.97,0,5.38,2.41,5.38,5.38v9.43C176.43,99,174.02,101.41,171.05,101.41z"/>
				<g>
					<g>
						<path class="st19" d="M169.99,100.4h-9.43c-2.97,0-5.38-2.41-5.38-5.38v-9.43c0-2.97,2.41-5.38,5.38-5.38h9.43
							c2.97,0,5.38,2.41,5.38,5.38v9.43C175.37,97.99,172.96,100.4,169.99,100.4z"/>
						<g>
							<path class="st17" d="M165.33,92.71c-2.07,0-3.85,1.24-4.64,3.01h9.29C169.18,93.95,167.41,92.71,165.33,92.71z"/>
							<path class="st17" d="M165.33,90.44c1.43,0,2.58-1.16,2.58-2.58c0-1.43-1.16-2.58-2.58-2.58c-1.43,0-2.58,1.16-2.58,2.58
								C162.75,89.28,163.91,90.44,165.33,90.44z"/>
						</g>
					</g>
					<g class="st18">
						<path class="st9" d="M172.21,80.21h-13.87c-1.74,0-3.16,1.41-3.16,3.16v13.87c0,0.62,0.19,1.2,0.5,1.69l18.48-18.02
							C173.62,80.48,172.95,80.21,172.21,80.21z"/>
					</g>
				</g>
			</g>
			<g>
				<path class="st15" d="M197.21,101.41h-9.43c-2.97,0-5.38-2.41-5.38-5.38V86.6c0-2.97,2.41-5.38,5.38-5.38h9.43
					c2.97,0,5.38,2.41,5.38,5.38v9.43C202.59,99,200.18,101.41,197.21,101.41z"/>
				<g>
					<g>
						<path class="st14" d="M196.14,100.4h-9.43c-2.97,0-5.38-2.41-5.38-5.38v-9.43c0-2.97,2.41-5.38,5.38-5.38h9.43
							c2.97,0,5.38,2.41,5.38,5.38v9.43C201.52,97.99,199.11,100.4,196.14,100.4z"/>
						<g>
							<g>
								<polyline class="st17" points="188.23,93.04 185.04,90.24 188.23,87.45 								"/>
								<polyline class="st17" points="194.62,93.04 197.81,90.24 194.62,87.45 								"/>
								<line class="st17" x1="192.5" y1="86.53" x2="190.48" y2="94.09"/>
							</g>
						</g>
					</g>
					<g class="st18">
						<path class="st9" d="M198.36,80.21h-13.87c-1.74,0-3.16,1.41-3.16,3.16v13.87c0,0.62,0.19,1.2,0.5,1.69l18.48-18.02
							C199.77,80.48,199.1,80.21,198.36,80.21z"/>
					</g>
				</g>
			</g>
		</g>
		<g>
			<line class="st20" x1="104.53" y1="59.71" x2="94.63" y2="115.82"/>
			<line class="st20" x1="116.76" y1="60.29" x2="107.4" y2="115.82"/>
			<line class="st20" x1="108.54" y1="109.1" x2="95.76" y2="109.03"/>
			<line class="st20" x1="110.01" y1="100.39" x2="97.23" y2="100.23"/>
			<line class="st20" x1="111.48" y1="91.66" x2="98.7" y2="91.41"/>
			<line class="st20" x1="112.95" y1="82.91" x2="100.18" y2="82.57"/>
			<line class="st20" x1="114.43" y1="74.14" x2="101.66" y2="73.7"/>
			<line class="st20" x1="115.91" y1="65.35" x2="103.14" y2="64.82"/>
		</g>
		<g>
			<path class="st9" d="M156.84,32.42h-21.03c-0.28,0-0.51-0.23-0.51-0.51v0c0-0.28,0.23-0.51,0.51-0.51h21.03
				c0.28,0,0.51,0.23,0.51,0.51v0C157.35,32.19,157.12,32.42,156.84,32.42z"/>
			<circle class="st9" cx="159.22" cy="31.92" r="0.6"/>
		</g>
	</g>
</g>
</svg>
