<?xml version="1.0" encoding="utf-8"?>
<!-- Generator: Adobe Illustrator 25.0.0, SVG Export Plug-In . SVG Version: 6.00 Build 0)  -->
<svg version="1.1" id="Layer_1" xmlns="http://www.w3.org/2000/svg" xmlns:xlink="http://www.w3.org/1999/xlink" x="0px" y="0px"
	 viewBox="0 0 299.24 180.3" style="enable-background:new 0 0 299.24 180.3;" xml:space="preserve">
<style type="text/css">
	.st0{fill:#E7F3FE;}
	.st1{fill:#303C60;}
	.st2{fill:#E38540;}
	.st3{fill:#6791C9;}
	.st4{clip-path:url(#SVGID_2_);fill:#75A1DE;}
	.st5{clip-path:url(#SVGID_2_);fill:#6791C9;}
	.st6{fill:#2E5B9A;}
	.st7{fill:#F09959;}
	.st8{fill:#75A1DE;}
	.st9{fill:#9BD6E8;}
	.st10{fill:#7BCEE8;}
	.st11{fill:#D54A41;}
	.st12{fill:#F39892;}
	.st13{fill:#F2E5DE;}
	.st14{fill:#9EC8FF;}
	.st15{fill:#FFFFFF;}
	.st16{fill:#9CD499;}
	.st17{fill:#F37168;}
	.st18{fill:#74B570;}
</style>
<g>
	<path class="st0" d="M110.6,172.63C38.11,168.41-20.03,91.72,18.55,47.21c29.92-34.52,69.81,15.73,107.01-9.59
		C182.8-1.33,275.53-8.41,287.8,40.69c12.27,49.09-28.38,125.81-58.68,130.41C198.82,175.7,110.6,172.63,110.6,172.63z"/>
	<path class="st1" d="M120,68.69c0.77,18.41,0.58,28.38-6.14,36.05c-6.71,7.67-25.51,5.75-25.51,5.75s-1.85,27.1-28.13,28.26
		c-26.27,1.15-30.05-33.75-9.46-42.7c19.59-8.52,25.83-11,32.6-32.09c6.19-19.27,25.51-15.6,30.11-7.54
		C118.08,64.47,120,68.69,120,68.69z"/>
	<path class="st2" d="M111.37,162.66c0,0,12.4,2.43,13.04,2.3c0.64-0.13,14.19-6.14,15.6-5.24c1.41,0.89,9.59,4.35,11.38,5.11
		c1.79,0.77-1.02,1.02-2.43,1.02c-1.41,0-9.46-3.32-10.36-2.68c-0.89,0.64,7.03,1.92,7.03,2.43c0,0.51-21.22,5.37-22.5,5.37
		c-1.28,0-11.12-0.89-11.12-0.89L111.37,162.66z"/>
	<path class="st3" d="M101.07,94.93c6.68,1.31,10.61,8.38,11.89,14.57C114.24,115.69,101.07,94.93,101.07,94.93z"/>
	<g>
		<defs>
			<path id="SVGID_1_" d="M110.6,172.63C38.11,168.41-20.03,91.72,18.55,47.21c29.92-34.52,69.81,15.73,107.01-9.59
				C182.8-1.33,275.53-8.41,287.8,40.69c12.27,49.09-28.38,125.81-58.68,130.41C198.82,175.7,110.6,172.63,110.6,172.63z"/>
		</defs>
		<clipPath id="SVGID_2_">
			<use xlink:href="#SVGID_1_"  style="overflow:visible;"/>
		</clipPath>
		<path class="st4" d="M89.89,90.17c0,0-12.85,8.63-19.75,12.85c-6.9,4.22,2.49,49.67,4.79,66.55c2.3,16.88,42.19,1.53,42.19,1.53
			s-2.68-14.19,0.77-37.01c2.47-16.35-6.58-26.59-11.76-33.69C93.06,82.49,89.89,90.17,89.89,90.17z"/>
		<path class="st5" d="M77.23,103.21c14.77,18.03,19.76,21.4,16.11,33.56c-2.88,9.59-3.84,13.04-4.41,16.3
			c-0.58,3.26,27.42-2.11,27.42-2.11l-0.19,10.55c0,0-22.05,10.55-32.79,12.66c-10.74,2.11-17.45-0.38-17.45-0.38L77.23,103.21z"/>
	</g>
	<path class="st6" d="M253.02,175.41H52.43c-1.45,0-2.62-1.02-2.62-2.28c0-1.26,1.17-2.28,2.62-2.28h200.59
		c1.45,0,2.62,1.02,2.62,2.28C255.64,174.39,254.46,175.41,253.02,175.41z"/>
	<path class="st7" d="M94.62,72.01L87.97,91.7c0,0,7.29,19.75,13.42,15.34c2.1-1.51-0.77-13.42-0.77-13.42l4.47-15.98L94.62,72.01z"
		/>
	<path class="st7" d="M73.39,102.44c-9.18,1.02-9.97,13.42-14.19,34.14s-2.95,34.38-0.96,37.01c4.79,6.33,58.68-15.73,65.4-15.53
		c4.63,0.13,0.77-7.67,0.77-7.67l-51.4,7.86c0,0,7.29-23.97,7.29-36.25C80.3,109.73,76.85,102.06,73.39,102.44z"/>
	<path class="st7" d="M121.15,150.77c5.37-1.34,13.23-4.41,14.77-3.07c1.53,1.34,7.86,10.93,9.97,13.62
		c2.11,2.68-0.96,0.58-3.26-1.53c-2.3-2.11-4.22-3.26-4.22-3.26s-2.88,2.68-5.56,4.22c-2.68,1.53-3.64-1.53-8.25-2.3
		c-4.6-0.77-16.11,3.26-16.11,3.26L121.15,150.77z"/>
	<path class="st8" d="M74.42,100.91c-5.63,0.26-9.97,4.99-11.51,12.27c-1.53,7.29-6.01,30.43-6.01,30.43s-0.89,0.64,8.44,2.3
		c9.33,1.66,17-0.26,17-0.26s1.92-13.17,1.41-22.25c-0.51-9.08-2.56-17.64-5.88-20.58C74.54,99.88,74.42,100.91,74.42,100.91z"/>
	<path class="st2" d="M100.63,93.62l4.47-15.98l-10.48-5.63l-1.6,4.74c-0.35,15.88,3.72,21.19,6.46,23.13
		c0.86,0.61,1.59,0.14,2.21-0.85C101.23,96.15,100.63,93.62,100.63,93.62z"/>
	<path class="st7" d="M121.91,73.86c0,8.55-1.02,19.04-8.44,18.79c-11.51-0.38-18.76-9.33-18.76-17.88
		c0-8.55,6.02-15.49,13.44-15.49C115.58,59.29,121.91,65.31,121.91,73.86z"/>
	<path class="st9" d="M207.78,170.84h-43.14l17.74-39.03c0.52-1.14,1.65-1.87,2.9-1.87h39.15c0.91,0,1.51,0.94,1.13,1.76
		L207.78,170.84z"/>
	<path class="st9" d="M207.69,170.84h-79.58c0-2.77,2.25-5.02,5.02-5.02h74.56V170.84z"/>
	<path class="st10" d="M224.44,129.93h-34.5c-1.25,0-2.39,0.73-2.9,1.87l-17.74,39.03h38.49l17.79-39.14
		C225.95,130.87,225.35,129.93,224.44,129.93z"/>
	<path class="st1" d="M109.26,56.32c8.15-0.58,12.98,6.87,14.38,13.39c1.01,4.7,0.51,5.63,0.51,5.63s-0.89,1.28-7.29,1.66
		c-6.39,0.38-7.16,0.26-7.16,0.26l-0.38-7.42L107.4,77c0,0-1.02,1.41-4.99-0.51c-3.96-1.92-5.75-8.31-5.75-8.31
		s-0.89-4.22,2.17-7.03C101.9,58.33,109.26,56.32,109.26,56.32z"/>
	<path class="st11" d="M103.19,75.56c-0.78,5.17-4.91,8.84-9.22,8.19c-4.31-0.65-7.17-5.37-6.39-10.55
		c0.78-5.17,4.91-8.84,9.22-8.19C101.11,65.66,103.97,70.38,103.19,75.56z"/>
	<path class="st12" d="M100.08,75.42c-0.72,4.79-4.11,8.25-7.57,7.73c-3.46-0.52-5.68-4.83-4.95-9.62c0.72-4.79,4.11-8.25,7.57-7.73
		C98.58,66.32,100.8,70.63,100.08,75.42z"/>
	<path class="st13" d="M94.79,74.35c-0.4,2.63-1.83,4.6-3.2,4.39c-1.37-0.21-2.16-2.51-1.76-5.14c0.4-2.63,1.83-4.6,3.2-4.39
		C94.4,69.41,95.19,71.72,94.79,74.35z"/>
	<path class="st11" d="M94.59,65.14c3.74-13.9,16.65-11.88,19.91-9.94c2.75,1.63,3.13,3.93,3.13,3.93s-3.55-2.88-9.59-1.82
		c-5.73,1-9.14,4.38-9.62,8.12C98.18,67.33,94.59,65.14,94.59,65.14z"/>
	<g>
		<path class="st1" d="M37.21,110.02c-0.01,0-0.02,0-0.03,0c-0.16-0.02-0.28-0.16-0.27-0.32c0.34-3.52,2.09-7.13,4.95-10.18
			c3.23-3.45,7.82-6.16,13.29-7.85c12.17-3.76,22.79-8.55,29.47-29.09c0.05-0.16,0.22-0.24,0.37-0.19c0.16,0.05,0.24,0.22,0.19,0.37
			c-3.07,9.44-7.24,16.31-12.76,21.01c-4.87,4.14-10.35,6.38-17.09,8.46c-5.37,1.66-9.87,4.32-13.03,7.69
			c-2.77,2.95-4.47,6.44-4.79,9.83C37.49,109.91,37.36,110.02,37.21,110.02z"/>
	</g>
	<g>
		<path class="st1" d="M42.71,95.83c-0.09,0-0.18-0.04-0.23-0.11c-0.1-0.13-0.08-0.31,0.05-0.41c0.05-0.04,5.25-4.02,12.77-5.68
			c14.44-3.18,24.13-11.86,28.03-25.11c0.05-0.16,0.21-0.25,0.37-0.2c0.16,0.05,0.25,0.21,0.2,0.37
			c-2.41,8.18-6.94,14.64-13.47,19.19c-4.21,2.93-9.25,5.06-15,6.33c-7.39,1.63-12.49,5.53-12.54,5.57
			C42.84,95.81,42.77,95.83,42.71,95.83z"/>
	</g>
	<g>
		<path class="st14" d="M227.84,91.59H188.9c-0.37,0-0.55-0.3-0.42-0.66l7.9-21.71c0.13-0.36,0.54-0.66,0.9-0.66h38.95
			c0.37,0,0.55,0.3,0.42,0.66l-7.9,21.71C228.61,91.29,228.21,91.59,227.84,91.59z"/>
		<path class="st15" d="M227.37,90.57H190.1c-0.34,0-0.52-0.28-0.39-0.62l7.19-19.76c0.12-0.34,0.5-0.62,0.84-0.62h37.27
			c0.34,0,0.52,0.28,0.39,0.62l-7.19,19.76C228.09,90.3,227.71,90.57,227.37,90.57z"/>
		<path class="st14" d="M226.7,89.28h-34.99c-0.38,0-0.58-0.31-0.44-0.69l6.2-17.04c0.14-0.38,0.56-0.69,0.95-0.69h34.99
			c0.38,0,0.58,0.31,0.44,0.69l-6.2,17.04C227.51,88.97,227.08,89.28,226.7,89.28z"/>
		
			<ellipse transform="matrix(0.7678 -0.6407 0.6407 0.7678 -1.9449 154.7787)" class="st15" cx="212.56" cy="80.07" rx="7.66" ry="5.33"/>
		<path class="st14" d="M218.06,80.07c-1.11,3.04-4.47,5.5-7.51,5.5c-3.04,0-4.61-2.46-3.5-5.5c1.11-3.04,4.47-5.5,7.51-5.5
			C217.6,74.57,219.17,77.03,218.06,80.07z"/>
		<polygon class="st15" points="215.38,79.78 212.94,80.94 210.51,82.1 211.36,79.78 212.2,77.45 213.79,78.62 		"/>
		<g>
			<path class="st16" d="M168.89,67.17h-3.07c-0.63,0-1.18-0.26-1.5-0.72c-0.34-0.49-0.4-1.14-0.16-1.8l1.12-3.07
				c0.43-1.19,1.71-2.12,2.91-2.12h3.07c0.63,0,1.18,0.26,1.5,0.72c0.34,0.49,0.4,1.14,0.16,1.8l-1.12,3.07
				C171.36,66.24,170.09,67.17,168.89,67.17z M168.19,60.65c-0.7,0-1.54,0.62-1.8,1.34l-1.12,3.07c-0.11,0.29-0.1,0.55,0.02,0.72
				c0.12,0.18,0.36,0.22,0.53,0.22h3.07c0.71,0,1.53-0.61,1.8-1.34l1.12-3.07c0.11-0.29,0.1-0.55-0.02-0.72
				c-0.12-0.18-0.36-0.22-0.53-0.22H168.19z"/>
		</g>
		<g>
			<path class="st16" d="M164.14,80.21h-3.07c-0.63,0-1.18-0.26-1.5-0.72c-0.34-0.49-0.4-1.14-0.16-1.8l1.12-3.07
				c0.43-1.19,1.71-2.12,2.91-2.12h3.07c0.63,0,1.18,0.26,1.5,0.72c0.34,0.49,0.4,1.14,0.16,1.8l-1.12,3.07
				C166.62,79.28,165.34,80.21,164.14,80.21z M163.44,73.69c-0.7,0-1.54,0.62-1.8,1.34l-1.12,3.07c-0.11,0.29-0.1,0.55,0.02,0.72
				c0.12,0.18,0.36,0.22,0.53,0.22h3.07c0.71,0,1.53-0.61,1.8-1.34l1.12-3.07c0.11-0.29,0.1-0.55-0.02-0.72
				c-0.12-0.18-0.36-0.22-0.53-0.22H163.44z"/>
		</g>
		<g>
			<path class="st14" d="M159.39,93.25h-3.07c-0.63,0-1.18-0.26-1.5-0.72c-0.34-0.49-0.4-1.14-0.16-1.8l1.12-3.07
				c0.43-1.19,1.71-2.12,2.91-2.12h3.07c0.63,0,1.18,0.26,1.5,0.72c0.34,0.49,0.4,1.14,0.16,1.8l-1.12,3.07
				C161.87,92.32,160.59,93.25,159.39,93.25z M158.7,86.73c-0.71,0-1.53,0.61-1.8,1.34l-1.12,3.07c-0.11,0.29-0.1,0.55,0.02,0.72
				c0.12,0.18,0.36,0.22,0.53,0.22h3.07c0.71,0,1.53-0.61,1.8-1.34l1.12-3.07c0.11-0.29,0.1-0.55-0.02-0.72
				c-0.12-0.18-0.36-0.22-0.53-0.22H158.7z"/>
		</g>
		<path class="st14" d="M194.13,64.66h-16.88c-0.32,0-0.48-0.26-0.37-0.58c0.12-0.32,0.47-0.58,0.78-0.58h16.88
			c0.32,0,0.48,0.26,0.37,0.58C194.8,64.4,194.45,64.66,194.13,64.66z"/>
		<path class="st14" d="M193.29,66.96h-16.88c-0.32,0-0.48-0.26-0.37-0.58c0.12-0.32,0.47-0.58,0.78-0.58h16.88
			c0.32,0,0.48,0.26,0.37,0.58C193.96,66.7,193.61,66.96,193.29,66.96z"/>
		<path class="st14" d="M189.73,76.74h-16.88c-0.32,0-0.48-0.26-0.37-0.58c0.12-0.32,0.47-0.58,0.78-0.58h16.88
			c0.32,0,0.48,0.26,0.37,0.58C190.4,76.48,190.05,76.74,189.73,76.74z"/>
		<path class="st14" d="M188.9,79.04h-16.88c-0.32,0-0.48-0.26-0.37-0.58c0.12-0.32,0.47-0.58,0.78-0.58h16.88
			c0.32,0,0.48,0.26,0.37,0.58C189.57,78.78,189.21,79.04,188.9,79.04z"/>
		<path class="st14" d="M184.85,90.17h-16.88c-0.32,0-0.48-0.26-0.37-0.58c0.12-0.32,0.47-0.58,0.78-0.58h16.88
			c0.32,0,0.48,0.26,0.37,0.58C185.52,89.91,185.16,90.17,184.85,90.17z"/>
		<path class="st14" d="M184.01,92.47h-16.88c-0.32,0-0.48-0.26-0.37-0.58c0.12-0.32,0.47-0.58,0.78-0.58h16.88
			c0.32,0,0.48,0.26,0.37,0.58C184.68,92.21,184.33,92.47,184.01,92.47z"/>
		<g>
			<path class="st17" d="M168.17,65.44c-0.05,0-0.1-0.01-0.16-0.02c-0.18-0.05-0.32-0.18-0.39-0.35l-1.16-2.88
				c-0.12-0.3,0.02-0.65,0.33-0.77c0.3-0.12,0.65,0.02,0.77,0.33l0.87,2.15l6.85-5.28c0.26-0.2,0.63-0.15,0.83,0.11
				c0.2,0.26,0.15,0.63-0.11,0.83l-7.46,5.75C168.43,65.4,168.3,65.44,168.17,65.44z"/>
		</g>
		<g>
			<path class="st17" d="M163.43,78.48c-0.05,0-0.1-0.01-0.16-0.02c-0.18-0.05-0.32-0.18-0.39-0.35l-1.16-2.88
				c-0.12-0.3,0.02-0.65,0.33-0.77c0.3-0.12,0.65,0.02,0.77,0.33l0.87,2.15l6.85-5.28c0.26-0.2,0.63-0.15,0.83,0.11
				c0.2,0.26,0.15,0.63-0.11,0.83l-7.46,5.75C163.68,78.44,163.55,78.48,163.43,78.48z"/>
		</g>
		<polygon class="st14" points="275.01,49.51 210.19,49.51 211.87,44.91 276.69,44.91 		"/>
		<polygon class="st14" points="272.5,56.41 207.68,56.41 209.36,51.81 274.18,51.81 		"/>
		<path class="st14" d="M200.65,111.6h-47.6c-0.62,0-0.95-0.51-0.72-1.13c0.23-0.62,0.92-1.13,1.54-1.13h47.6
			c0.62,0,0.95,0.51,0.72,1.13C201.97,111.1,201.27,111.6,200.65,111.6z"/>
		<path class="st14" d="M198.82,116.63h-47.6c-0.62,0-0.95-0.51-0.72-1.13c0.23-0.62,0.92-1.13,1.54-1.13h47.6
			c0.62,0,0.95,0.51,0.72,1.13C200.14,116.12,199.45,116.63,198.82,116.63z"/>
	</g>
	<path class="st16" d="M243.38,159.13c0-0.8,9.62-27.38,3.12-44.5c-4.55-11.98-5.27-26.36-5.27-26.36s-8.87,12.7-2.88,32.12
		c3.69,11.95,5.19,15.26,5.51,18.77c0.32,3.52-1.44,21.09-1.44,21.09L243.38,159.13z"/>
	<g>
		<path class="st18" d="M242.42,160.54c-0.04,0-0.08-0.01-0.12-0.02c-0.12-0.05-0.19-0.17-0.18-0.3c0.02-0.18,1.75-17.59,1.44-21.04
			c-0.21-2.29-0.92-4.46-2.47-9.21c-0.79-2.43-1.78-5.46-3.03-9.5c-3.12-10.1-2.16-18.35-0.81-23.5c1.46-5.59,3.64-8.74,3.73-8.87
			c0.07-0.1,0.2-0.15,0.32-0.11c0.12,0.04,0.21,0.14,0.21,0.27c0.01,0.14,0.77,14.47,5.25,26.27c2.43,6.4,2.92,14.84,1.45,25.08
			c-1.17,8.18-3.26,15.17-4.16,18.16c-0.2,0.68-0.38,1.27-0.39,1.38c0,0.07-0.02,0.13-0.07,0.18l-0.96,1.12
			C242.59,160.51,242.51,160.54,242.42,160.54z M240.99,89.2c-0.73,1.26-2.14,4.01-3.17,7.94c-1.32,5.07-2.26,13.2,0.81,23.15
			c1.25,4.04,2.23,7.06,3.03,9.49c1.57,4.79,2.28,6.98,2.5,9.34c0.28,3.08-0.98,16.5-1.35,20.21l0.29-0.34
			c0.03-0.18,0.14-0.53,0.4-1.41c5.56-18.57,6.47-32.99,2.72-42.86C242.36,104.58,241.24,92.58,240.99,89.2z"/>
	</g>
	<path class="st16" d="M245.46,161.84c-1.44-29.56,5.59-45.7,19.97-58.48c14.38-12.78,15.02-16.14,15.02-16.14
		s-2.24,24.93-10.55,33.55c-8.31,8.63-20.45,15.02-22.21,19.49c-1.76,4.47-1.12,19.49-1.12,19.49l-1.12,2.72V161.84z"/>
	<path class="st16" d="M243.7,164.4c-0.16-0.48,3.04-27.64,14.7-29.24c11.66-1.6,14.38,1.12,22.37-0.16
		c5.7-0.91,10.07-2.72,10.07-2.72s-3.03,7.7-13.42,10.87c-7.35,2.24-16.94-1.44-22.53-0.48c-5.59,0.96-8.47,12.94-8.47,12.94
		l-0.96,6.23L243.7,164.4z"/>
	<g>
		<path class="st18" d="M245.3,160.38c-0.15,0-0.28-0.12-0.29-0.27c-0.02-0.19-1.67-19.27,6.43-33.88
			c4.18-7.55,8.75-11.92,13.17-16.15c4.12-3.94,8-7.66,10.95-13.56c0.07-0.15,0.25-0.2,0.4-0.13c0.15,0.07,0.21,0.25,0.13,0.4
			c-2.99,5.99-6.92,9.74-11.07,13.72c-4.39,4.2-8.92,8.54-13.06,16.01c-8.01,14.45-6.37,33.35-6.36,33.54
			c0.02,0.16-0.1,0.31-0.27,0.32C245.32,160.38,245.31,160.38,245.3,160.38z"/>
	</g>
	<g>
		<path class="st18" d="M244.5,156.55c-0.03,0-0.06,0-0.08-0.01c-0.16-0.05-0.25-0.21-0.2-0.37c3.06-10.54,6.57-16.69,11.05-19.36
			c4-2.38,8.14-1.65,12.52-0.88c1.07,0.19,2.18,0.39,3.28,0.53c9.52,1.25,14.16-1.06,14.21-1.09c0.15-0.07,0.32-0.02,0.4,0.13
			c0.07,0.15,0.02,0.32-0.13,0.4c-0.19,0.1-4.83,2.42-14.55,1.15c-1.11-0.15-2.23-0.34-3.3-0.53c-4.27-0.75-8.3-1.47-12.12,0.8
			c-4.34,2.58-7.77,8.62-10.78,19.01C244.75,156.46,244.63,156.55,244.5,156.55z"/>
	</g>
	<g>
		<path class="st18" d="M259.76,115.56c-0.09,0-0.18-0.04-0.23-0.12c-0.1-0.13-0.08-0.31,0.05-0.41c0.06-0.04,5.74-4.37,13.63-5.89
			c0.16-0.03,0.32,0.07,0.35,0.23c0.03,0.16-0.07,0.32-0.23,0.35c-7.75,1.49-13.32,5.73-13.38,5.78
			C259.89,115.54,259.82,115.56,259.76,115.56z"/>
	</g>
	<g>
		<path class="st18" d="M250.73,128.43c-0.05,0-0.1-0.01-0.15-0.04c-0.14-0.08-0.19-0.26-0.1-0.41c4.16-7.02,9.03-8.78,19.66-12.11
			c0.15-0.05,0.32,0.04,0.37,0.19c0.05,0.16-0.04,0.32-0.19,0.37c-10.48,3.28-15.28,5.02-19.33,11.85
			C250.93,128.37,250.83,128.43,250.73,128.43z"/>
	</g>
	<path class="st12" d="M248.15,171.67h-7.14c-2.52,0-4.68-1.79-5.16-4.26l-2.3-12.03h22.05l-2.3,12.03
		C252.83,169.88,250.67,171.67,248.15,171.67z"/>
	<g>
		<path class="st11" d="M255.05,158.44h-20.77c-0.33,0-0.59-0.26-0.59-0.59c0-0.33,0.26-0.59,0.59-0.59h20.77
			c0.33,0,0.59,0.26,0.59,0.59C255.64,158.18,255.37,158.44,255.05,158.44z"/>
	</g>
</g>
</svg>
